<svg width="80" height="80" viewBox="0 0 80 80" fill="none" xmlns="http://www.w3.org/2000/svg">
  <!-- Background circle with gradient -->
  <circle cx="40" cy="40" r="38" fill="url(#githubBg)" stroke="url(#githubBorder)" stroke-width="2"/>
  
  <!-- GitHub Octocat icon -->
  <path d="M40 12C25.64 12 14 23.64 14 38C14 49.52 21.28 59.32 31.36 62.64C32.76 62.88 33.28 62.04 33.28 61.32C33.28 60.68 33.24 58.68 33.24 56.48C26 57.96 24.32 53.32 24.32 53.32C23.08 50.36 21.16 49.56 21.16 49.56C18.44 48.04 21.36 48.08 21.36 48.08C24.36 48.28 25.88 51.12 25.88 51.12C28.52 55.72 32.92 54.4 33.36 54.16C33.64 52.28 34.44 51 35.32 50.52C29.32 50 23 47.68 23 37.32C23 34.6 24.04 32.36 25.92 30.6C25.64 30.08 24.64 27.32 26.2 23.64C26.2 23.64 28.68 22.88 33.2 25.84C35.6 25.16 38.32 24.84 41 24.84C43.68 24.84 46.4 25.16 48.8 25.84C53.32 22.88 55.8 23.64 55.8 23.64C57.36 27.32 56.36 30.08 56.08 30.6C57.96 32.36 59 34.6 59 37.32C59 47.72 52.64 50 46.6 50.48C47.72 51.44 48.76 53.32 48.76 56.2C48.76 60.32 48.72 63.64 48.72 64.64C48.72 65.36 49.24 66.24 50.68 65.96C60.72 62.64 68 52.84 68 41.32C68 26.96 56.36 15.32 42 15.32" fill="url(#githubIcon)" transform="translate(-2, -3.32)"/>
  
  <!-- Animated pulse rings -->
  <circle cx="40" cy="40" r="35" stroke="url(#pulseGradient)" stroke-width="1" fill="none" opacity="0.4">
    <animate attributeName="r" values="35;42;35" dur="4s" repeatCount="indefinite"/>
    <animate attributeName="opacity" values="0.4;0.1;0.4" dur="4s" repeatCount="indefinite"/>
  </circle>
  
  <!-- Gradients -->
  <defs>
    <linearGradient id="githubBg" x1="0%" y1="0%" x2="100%" y2="100%">
      <stop offset="0%" style="stop-color:#24292e;stop-opacity:0.95" />
      <stop offset="25%" style="stop-color:#2d333b;stop-opacity:0.95" />
      <stop offset="50%" style="stop-color:#21262d;stop-opacity:0.95" />
      <stop offset="75%" style="stop-color:#161b22;stop-opacity:0.95" />
      <stop offset="100%" style="stop-color:#0d1117;stop-opacity:0.95" />
    </linearGradient>
    
    <linearGradient id="githubBorder" x1="0%" y1="0%" x2="100%" y2="100%">
      <stop offset="0%" style="stop-color:#58a6ff;stop-opacity:1" />
      <stop offset="25%" style="stop-color:#f85149;stop-opacity:1" />
      <stop offset="50%" style="stop-color:#7ee787;stop-opacity:1" />
      <stop offset="75%" style="stop-color:#ffa657;stop-opacity:1" />
      <stop offset="100%" style="stop-color:#da70d6;stop-opacity:1" />
    </linearGradient>
    
    <linearGradient id="githubIcon" x1="0%" y1="0%" x2="100%" y2="100%">
      <stop offset="0%" style="stop-color:#ffffff;stop-opacity:1" />
      <stop offset="50%" style="stop-color:#f0f6fc;stop-opacity:1" />
      <stop offset="100%" style="stop-color:#c9d1d9;stop-opacity:1" />
    </linearGradient>
    
    <radialGradient id="pulseGradient" cx="50%" cy="50%" r="50%">
      <stop offset="0%" style="stop-color:#58a6ff;stop-opacity:0.6" />
      <stop offset="50%" style="stop-color:#7ee787;stop-opacity:0.4" />
      <stop offset="100%" style="stop-color:#f85149;stop-opacity:0.2" />
    </radialGradient>
  </defs>
</svg>