<svg width="80" height="80" viewBox="0 0 80 80" fill="none" xmlns="http://www.w3.org/2000/svg">
  <!-- Outer hexagon with gradient -->
  <path d="M40 5 L65 20 L65 50 L40 65 L15 50 L15 20 Z" fill="url(#techGradient1)" stroke="url(#techGradient2)" stroke-width="2"/>
  
  <!-- Inner circuit pattern -->
  <g stroke="url(#circuitGradient)" stroke-width="2" fill="none">
    <!-- Central processor -->
    <rect x="32" y="32" width="16" height="16" rx="2" fill="url(#processorGradient)"/>
    
    <!-- Circuit lines -->
    <path d="M25 25 L32 32 M48 32 L55 25 M32 48 L25 55 M48 48 L55 55"/>
    <path d="M40 25 L40 32 M40 48 L40 55 M25 40 L32 40 M48 40 L55 40"/>
    
    <!-- Connection nodes -->
    <circle cx="25" cy="25" r="2" fill="#00ff88"/>
    <circle cx="55" cy="25" r="2" fill="#ff0080"/>
    <circle cx="25" cy="55" r="2" fill="#0080ff"/>
    <circle cx="55" cy="55" r="2" fill="#ff8000"/>
    <circle cx="40" cy="25" r="1.5" fill="#ffffff"/>
    <circle cx="40" cy="55" r="1.5" fill="#ffffff"/>
    <circle cx="25" cy="40" r="1.5" fill="#ffffff"/>
    <circle cx="55" cy="40" r="1.5" fill="#ffffff"/>
  </g>
  
  <!-- Tech symbols -->
  <g fill="#ffffff" opacity="0.9">
    <!-- Binary code -->
    <text x="20" y="15" font-family="monospace" font-size="6" fill="url(#textGradient)">101</text>
    <text x="50" y="70" font-family="monospace" font-size="6" fill="url(#textGradient)">010</text>
    
    <!-- Brackets -->
    <text x="10" y="45" font-family="monospace" font-size="8" fill="#00ff88">&lt;</text>
    <text x="65" y="45" font-family="monospace" font-size="8" fill="#ff0080">/&gt;</text>
  </g>
  
  <!-- Animated pulse rings -->
  <circle cx="40" cy="40" r="20" stroke="url(#pulseGradient)" stroke-width="1" fill="none" opacity="0.6">
    <animate attributeName="r" values="20;25;20" dur="3s" repeatCount="indefinite"/>
    <animate attributeName="opacity" values="0.6;0.2;0.6" dur="3s" repeatCount="indefinite"/>
  </circle>
  
  <!-- Gradients -->
  <defs>
    <linearGradient id="techGradient1" x1="0%" y1="0%" x2="100%" y2="100%">
      <stop offset="0%" style="stop-color:#667eea;stop-opacity:0.9" />
      <stop offset="25%" style="stop-color:#764ba2;stop-opacity:0.9" />
      <stop offset="50%" style="stop-color:#f093fb;stop-opacity:0.9" />
      <stop offset="75%" style="stop-color:#4facfe;stop-opacity:0.9" />
      <stop offset="100%" style="stop-color:#00f2fe;stop-opacity:0.9" />
    </linearGradient>
    
    <linearGradient id="techGradient2" x1="0%" y1="0%" x2="100%" y2="100%">
      <stop offset="0%" style="stop-color:#00ff88;stop-opacity:1" />
      <stop offset="50%" style="stop-color:#ff0080;stop-opacity:1" />
      <stop offset="100%" style="stop-color:#0080ff;stop-opacity:1" />
    </linearGradient>
    
    <linearGradient id="processorGradient" x1="0%" y1="0%" x2="100%" y2="100%">
      <stop offset="0%" style="stop-color:#ff6b6b;stop-opacity:1" />
      <stop offset="50%" style="stop-color:#4ecdc4;stop-opacity:1" />
      <stop offset="100%" style="stop-color:#45b7d1;stop-opacity:1" />
    </linearGradient>
    
    <linearGradient id="circuitGradient" x1="0%" y1="0%" x2="100%" y2="100%">
      <stop offset="0%" style="stop-color:#ffffff;stop-opacity:0.8" />
      <stop offset="100%" style="stop-color:#00ff88;stop-opacity:0.8" />
    </linearGradient>
    
    <linearGradient id="textGradient" x1="0%" y1="0%" x2="100%" y2="100%">
      <stop offset="0%" style="stop-color:#00ff88;stop-opacity:1" />
      <stop offset="100%" style="stop-color:#0080ff;stop-opacity:1" />
    </linearGradient>
    
    <radialGradient id="pulseGradient" cx="50%" cy="50%" r="50%">
      <stop offset="0%" style="stop-color:#00ff88;stop-opacity:0.8" />
      <stop offset="100%" style="stop-color:#ff0080;stop-opacity:0.2" />
    </radialGradient>
  </defs>
</svg>